<svg xmlns="http://www.w3.org/2000/svg" viewBox="0 0 32 32" role="img" aria-label="レイド予約">
  <defs>
    <clipPath id="clip"><rect width="32" height="32" rx="6" ry="6"/></clipPath>
  </defs>
  <g clip-path="url(#clip)">
    <rect width="32" height="32" fill="#000"/>
    <g transform="skewX(-10) translate(-3 0)">
      <rect x="0" y="0" width="3.2" height="34" fill="#22d3ee"/>
      <rect x="3.5" y="0" width="3.2" height="34" fill="#4ade80"/>
      <rect x="7" y="0" width="3.2" height="34" fill="#facc15"/>
      <rect x="10.5" y="0" width="3.2" height="34" fill="#ef4444"/>
    </g>
    <!-- calendar / raid slot -->
    <rect x="15.5" y="9" width="13" height="14" rx="1.6" fill="#F2F0E4"/>
    <rect x="15.5" y="9" width="13" height="3.2" rx="1.6" fill="#F2F0E4"/>
    <rect x="15.5" y="11.2" width="13" height="1.1" fill="#000"/>
    <rect x="17.8" y="7.6" width="1.5" height="3.2" rx="0.6" fill="#F2F0E4"/>
    <rect x="24.7" y="7.6" width="1.5" height="3.2" rx="0.6" fill="#F2F0E4"/>
    <rect x="17.6" y="14.2" width="2.4" height="2.4" rx="0.4" fill="#000"/>
    <rect x="20.8" y="14.2" width="2.4" height="2.4" rx="0.4" fill="#000"/>
    <rect x="24" y="14.2" width="2.4" height="2.4" rx="0.4" fill="#000"/>
    <rect x="17.6" y="17.8" width="2.4" height="2.4" rx="0.4" fill="#000"/>
    <rect x="20.8" y="17.8" width="2.4" height="2.4" rx="0.4" fill="#22b8ff"/>
    <rect x="24" y="17.8" width="2.4" height="2.4" rx="0.4" fill="#000"/>
  </g>
</svg>
